<svg width="710" height="696" viewBox="0 0 710 696" fill="none" xmlns="http://www.w3.org/2000/svg">
<path d="M354.929 0.598007C275.458 0.598007 202.097 26.761 142.991 70.944H566.867C507.761 26.761 434.401 0.598007 354.929 0.598007Z" fill="black"/>
<path d="M571.934 74.81H137.925C124.91 84.907 112.615 95.888 101.136 107.669H608.724C597.244 95.888 584.949 84.907 571.934 74.81Z" fill="black"/>
<path d="M614.249 113.466H95.609C86.475 123.271 77.895 133.598 69.91 144.391H639.949C631.963 133.598 623.383 123.271 614.249 113.466Z" fill="black"/>
<path d="M645.512 152.123H64.347C57.813 161.467 51.718 171.141 46.093 181.115H663.766C658.14 171.142 652.045 161.468 645.512 152.123Z" fill="black"/>
<path d="M669.021 190.78H40.838C36.225 199.589 31.972 208.615 28.098 217.84H681.762C677.887 208.615 673.634 199.589 669.021 190.78Z" fill="black"/>
<path d="M686.393 229.437H23.465C20.346 237.67 17.527 246.051 15.018 254.564H694.841C692.331 246.051 689.512 237.671 686.393 229.437Z" fill="black"/>
<path d="M698.535 268.094H11.323C9.399 275.73 7.72199 283.464 6.30299 291.288H703.556C702.137 283.464 700.459 275.73 698.535 268.094Z" fill="black"/>
<path d="M706.006 306.751H3.85201C2.89701 313.775 2.14399 320.863 1.60699 328.012H708.251C707.714 320.864 706.961 313.775 706.006 306.751Z" fill="black"/>
<path d="M709.26 354.929C709.26 351.745 709.216 348.572 709.132 345.408H0.725998C0.642998 348.572 0.598007 351.745 0.598007 354.929C0.598007 358.209 0.646001 361.478 0.735001 364.737H709.123C709.212 361.478 709.26 358.209 709.26 354.929Z" fill="black"/>
<path d="M708.072 384.065H1.786C2.261 389.905 2.877 395.704 3.632 401.461H706.225C706.981 395.704 707.597 389.905 708.072 384.065Z" fill="black"/>
<path d="M702.778 422.722H7.08099C8.08799 427.918 9.209 433.073 10.44 438.185H699.419C700.65 433.073 701.771 427.918 702.778 422.722Z" fill="black"/>
<path d="M692.986 461.379H16.873C18.305 465.929 19.827 470.44 21.435 474.909H688.425C690.032 470.44 691.554 465.929 692.986 461.379Z" fill="black"/>
<path d="M678.277 500.036H31.582C33.337 503.94 35.16 507.806 37.05 511.633H672.808C674.699 507.806 676.522 503.94 678.277 500.036Z" fill="black"/>
<path d="M657.943 538.693H51.915C53.894 541.95 55.929 545.17 58.01 548.357H651.849C653.929 545.17 655.964 541.95 657.943 538.693Z" fill="black"/>
<path d="M630.766 577.35H79.092C81.198 579.959 83.343 582.534 85.522 585.081H624.338C626.515 582.534 628.66 579.958 630.766 577.35Z" fill="black"/>
<path d="M594.482 616.007H115.376C117.51 617.966 119.667 619.899 121.849 621.806H588.01C590.191 619.899 592.349 617.965 594.482 616.007Z" fill="black"/>
<path d="M543.972 654.664H165.886C167.957 655.973 170.042 657.263 172.143 658.53H537.716C539.816 657.262 541.901 655.973 543.972 654.664Z" fill="black"/>
<path d="M460.325 693.32H249.533C251.674 693.986 253.827 694.627 255.985 695.253H453.873C456.031 694.627 458.184 693.987 460.325 693.32Z" fill="black"/>
</svg>
